<svg xmlns="http://www.w3.org/2000/svg" viewBox="0 0 400 260" fill="none" role="img" aria-label="Flux AI"><defs><linearGradient id="fluxEye" x1="0" y1="0.5" x2="1" y2="0.5"><stop offset="0" stop-color="#0B5CFF"/><stop offset="0.34" stop-color="#14C8E8"/><stop offset="0.66" stop-color="#5CE86A"/><stop offset="1" stop-color="#E8F034"/></linearGradient></defs><g stroke="url(#fluxEye)" stroke-linejoin="round" stroke-linecap="round" fill="none" vector-effect="non-scaling-stroke"><g stroke-width="3" opacity=".55"><path d="M20.00,130.00 L48.48,121.90"/><path d="M88.40,69.50 L113.35,74.05"/><path d="M200.00,35.40 L211.40,50.37"/><path d="M311.60,69.50 L301.23,84.09"/><path d="M380.00,130.00 L351.52,138.10"/><path d="M311.60,190.50 L286.65,185.95"/><path d="M200.00,224.60 L188.60,209.63"/><path d="M88.40,190.50 L98.77,175.91"/><path d="M48.48,121.90 L73.43,116.36"/><path d="M113.35,74.05 L133.80,79.00"/><path d="M211.40,50.37 L219.19,63.48"/><path d="M301.23,84.09 L290.75,95.91"/><path d="M351.52,138.10 L326.57,143.64"/><path d="M286.65,185.95 L266.20,181.00"/><path d="M188.60,209.63 L180.81,196.52"/><path d="M98.77,175.91 L109.25,164.09"/><path d="M73.43,116.36 L95.10,112.82"/><path d="M133.80,79.00 L150.42,84.09"/><path d="M219.19,63.48 L224.17,74.87"/><path d="M290.75,95.91 L280.50,105.39"/><path d="M326.57,143.64 L304.90,147.18"/><path d="M266.20,181.00 L249.58,175.91"/><path d="M180.81,196.52 L175.83,185.13"/><path d="M109.25,164.09 L119.50,154.61"/><path d="M95.10,112.82 L113.76,110.82"/><path d="M150.42,84.09 L163.80,89.12"/><path d="M224.17,74.87 L226.99,84.68"/><path d="M280.50,105.39 L270.73,112.91"/><path d="M304.90,147.18 L286.24,149.18"/><path d="M249.58,175.91 L236.20,170.88"/><path d="M175.83,185.13 L173.01,175.32"/><path d="M119.50,154.61 L129.27,147.09"/><path d="M113.76,110.82 L129.72,109.97"/><path d="M163.80,89.12 L174.45,93.96"/><path d="M226.99,84.68 L228.18,93.06"/><path d="M270.73,112.91 L261.60,118.80"/><path d="M286.24,149.18 L270.28,150.03"/><path d="M236.20,170.88 L225.55,166.04"/><path d="M173.01,175.32 L171.82,166.94"/><path d="M129.27,147.09 L138.40,141.20"/><path d="M129.72,109.97 L143.25,109.98"/><path d="M174.45,93.96 L182.84,98.51"/><path d="M228.18,93.06 L228.18,100.18"/><path d="M261.60,118.80 L253.20,123.34"/><path d="M270.28,150.03 L256.75,150.02"/><path d="M225.55,166.04 L217.16,161.49"/><path d="M171.82,166.94 L171.82,159.82"/><path d="M138.40,141.20 L146.80,136.66"/><path d="M143.25,109.98 L154.64,110.59"/><path d="M182.84,98.51 L189.35,102.72"/><path d="M228.18,100.18 L227.31,106.16"/><path d="M253.20,123.34 L245.59,126.79"/><path d="M256.75,150.02 L245.36,149.41"/><path d="M217.16,161.49 L210.65,157.28"/><path d="M171.82,159.82 L172.69,153.84"/><path d="M146.80,136.66 L154.41,133.21"/><path d="M154.64,110.59 L164.16,111.62"/><path d="M189.35,102.72 L194.32,106.56"/><path d="M227.31,106.16 L225.86,111.16"/><path d="M245.59,126.79 L238.76,129.35"/><path d="M245.36,149.41 L235.84,148.38"/><path d="M210.65,157.28 L205.68,153.44"/><path d="M172.69,153.84 L174.14,148.84"/><path d="M154.41,133.21 L161.24,130.65"/></g><path d="M20.00,130.00 L88.40,69.50 L200.00,35.40 L311.60,69.50 L380.00,130.00 L311.60,190.50 L200.00,224.60 L88.40,190.50 Z" stroke-width="5.00" opacity="1.00"/><path d="M48.48,121.90 L113.35,74.05 L211.40,50.37 L301.23,84.09 L351.52,138.10 L286.65,185.95 L188.60,209.63 L98.77,175.91 Z" stroke-width="4.65" opacity="0.95"/><path d="M73.43,116.36 L133.80,79.00 L219.19,63.48 L290.75,95.91 L326.57,143.64 L266.20,181.00 L180.81,196.52 L109.25,164.09 Z" stroke-width="4.30" opacity="0.91"/><path d="M95.10,112.82 L150.42,84.09 L224.17,74.87 L280.50,105.39 L304.90,147.18 L249.58,175.91 L175.83,185.13 L119.50,154.61 Z" stroke-width="3.95" opacity="0.86"/><path d="M113.76,110.82 L163.80,89.12 L226.99,84.68 L270.73,112.91 L286.24,149.18 L236.20,170.88 L173.01,175.32 L129.27,147.09 Z" stroke-width="3.60" opacity="0.82"/><path d="M129.72,109.97 L174.45,93.96 L228.18,93.06 L261.60,118.80 L270.28,150.03 L225.55,166.04 L171.82,166.94 L138.40,141.20 Z" stroke-width="3.25" opacity="0.78"/><path d="M143.25,109.98 L182.84,98.51 L228.18,100.18 L253.20,123.34 L256.75,150.02 L217.16,161.49 L171.82,159.82 L146.80,136.66 Z" stroke-width="2.90" opacity="0.73"/><path d="M154.64,110.59 L189.35,102.72 L227.31,106.16 L245.59,126.79 L245.36,149.41 L210.65,157.28 L172.69,153.84 L154.41,133.21 Z" stroke-width="2.55" opacity="0.69"/><path d="M164.16,111.62 L194.32,106.56 L225.86,111.16 L238.76,129.35 L235.84,148.38 L205.68,153.44 L174.14,148.84 L161.24,130.65 Z" stroke-width="2.20" opacity="0.64"/></g><path d="M362 218 C365 218 366.5 216.5 367 208 C367.5 216.5 369 218 372 218 C369 218 367.5 219.5 367 228 C366.5 219.5 365 218 362 218 Z" fill="#E8F034" opacity=".9"/></svg>